C:\GBW_MyPrograms\KinderuniversiteitApp\Resultaten\smurftest\Kleuter\Kleuter_v1.mot
version=1
nRows=14
nColumns=29
inDegrees=yes
endheader
                time	         pelvis_tilt	           pelvis_tx	           pelvis_ty	       hip_flexion_l	       hip_flexion_r	        knee_angle_l	        knee_angle_r	       ankle_angle_l	       ankle_angle_r	    lumbar_extension	hamstrings_r/activation	bifemsh_r/activation	glut_max_r/activation	iliopsoas_r/activation	rect_fem_r/activation	  vasti_r/activation	gastroc_r/activation	 soleus_r/activation	tib_ant_r/activation	hamstrings_l/activation	bifemsh_l/activation	glut_max_l/activation	iliopsoas_l/activation	rect_fem_l/activation	  vasti_l/activation	gastroc_l/activation	 soleus_l/activation	tib_ant_l/activation	
          0.00000000	          2.02232986	          0.00000000	          0.47565226	        -17.14271464	         19.88313059	         -5.72082146	        -24.34915909	        -17.78728482	         -7.26696142	        -12.01819824	          0.09519525	          0.05040450	          0.05000029	          0.09421166	          0.05822625	          0.05000011	          0.05000203	          0.05000031	          0.08437880	          0.05000032	          0.05000366	          0.05000042	          0.34975229	          0.19887905	          0.07329339	          0.41605357	          0.32800452	          0.05000013	
          0.00888324	          2.01960632	          0.00553592	          0.47487983	        -17.49535027	         19.59015267	         -6.30225585	        -23.45156714	        -18.18329952	         -7.79625193	        -11.96425931	          0.10766801	          0.05000221	          0.05000345	          0.08206222	          0.06974644	          0.05000016	          0.05005006	          0.05000150	          0.08210619	          0.05000034	          0.05000413	          0.05000071	          0.36850112	          0.17323206	          0.07721252	          0.39766093	          0.35783950	          0.05000009	
          0.01776647	          2.01915893	          0.01126623	          0.47411042	        -17.76081694	         19.18930747	         -7.07664822	        -22.80038764	        -18.62857279	         -8.25591229	        -11.88797824	          0.11837546	          0.05000133	          0.05000020	          0.07147963	          0.07270291	          0.05182639	          0.05000060	          0.05001029	          0.07862302	          0.05000030	          0.05001219	          0.05000022	          0.37054579	          0.15089213	          0.08105972	          0.37491978	          0.38812647	          0.05000007	
          0.02664971	          2.02174506	          0.01720047	          0.47333765	        -17.93154185	         18.66975517	         -8.06176218	        -22.45472426	        -19.12589355	         -8.61529116	        -11.78550552	          0.11319810	          0.05000020	          0.05000132	          0.06226193	          0.06432871	          0.06127605	          0.05000027	          0.06322941	          0.08065975	          0.05000028	          0.05000255	          0.05000014	          0.33456497	          0.13143306	          0.07590874	          0.34855741	          0.41563647	          0.05000004	
          0.03553294	          2.02791438	          0.02333656	          0.47256089	        -18.00307521	         18.02419671	         -9.26587172	        -22.44800923	        -19.67996205	         -8.80950898	        -11.65422798	          0.12118789	          0.12001938	          0.05000017	          0.05740110	          0.05603289	          0.05337386	          0.11680850	          0.15315731	          0.07025783	          0.05000064	          0.05000226	          0.07110634	          0.29141941	          0.11448342	          0.07235897	          0.30360738	          0.41186527	          0.05000002	
          0.04441618	          2.03669046	          0.02961579	          0.47181078	        -17.98076222	         17.30087237	        -10.66308536	        -22.55323972	        -20.28957415	         -8.80811871	        -11.50236567	          0.11482553	          0.10454174	          0.08550094	          0.05000026	          0.05000032	          0.05734037	          0.14218010	          0.20784557	          0.06119734	          0.05000045	          0.05000281	          0.06193651	          0.25383784	          0.09971961	          0.07824845	          0.26445397	          0.35875090	          0.05000002	
          0.05329941	          2.04673312	          0.03595461	          0.47114833	        -17.86895552	         16.56161831	        -12.22098186	        -22.68282436	        -20.96263815	         -8.62034487	        -11.34180207	          0.11487918	          0.09106010	          0.10064190	          0.05000017	          0.05000030	          0.09057483	          0.16139943	          0.23882867	          0.05330533	          0.05000037	          0.05000056	          0.08902794	          0.22110296	          0.08685975	          0.06815772	          0.23034980	          0.31248613	          0.05000001	
          0.06218265	          2.05694588	          0.04228122	          0.47062162	        -17.66528371	         15.82340993	        -13.92190496	        -22.82331109	        -21.71358370	         -8.33651865	        -11.18082292	          0.11852708	          0.07931708	          0.12829435	          0.05000016	          0.05000027	          0.11190585	          0.18079279	          0.27659417	          0.05000012	          0.05000304	          0.05004992	          0.10343098	          0.19849520	          0.07565829	          0.05936810	          0.20064372	          0.27218770	          0.06007158	
          0.07106588	          2.06649428	          0.04853258	          0.47024581	        -17.36704232	         15.09040982	        -15.75951141	        -22.96001328	        -22.48595114	         -8.02897708	        -11.02605623	          0.12512473	          0.06908848	          0.16898014	          0.05000011	          0.05000020	          0.12851354	          0.19813255	          0.31043679	          0.05000020	          0.05000064	          0.05000103	          0.09972209	          0.18699717	          0.06590140	          0.05430445	          0.17476857	          0.23708618	          0.09323952	
          0.07994912	          2.07464848	          0.05465253	          0.47000832	        -16.97906418	         14.36285680	        -17.72877830	        -23.07335321	        -23.13015796	         -7.74159036	        -10.88367534	          0.13219595	          0.06017902	          0.20643189	          0.05000007	          0.05000015	          0.14182055	          0.21211093	          0.33941820	          0.05000015	          0.05896377	          0.05000117	          0.08686203	          0.18746855	          0.05740277	          0.05000026	          0.15223031	          0.20651138	          0.12484374	
          0.08883235	          2.08072438	          0.06059642	          0.46989485	        -16.51157915	         13.63828562	        -19.78876064	        -23.14474379	        -23.53119447	         -7.49403446	        -10.75878296	          0.13697325	          0.05241870	          0.22608668	          0.05000007	          0.05000014	          0.15279635	          0.22044233	          0.35980067	          0.05000014	          0.08905471	          0.10112275	          0.07566030	          0.19530460	          0.05000023	          0.05000005	          0.13259872	          0.17987953	          0.13664215	
          0.09771559	          2.08435937	          0.06633601	          0.46990876	        -15.96809684	         12.91635075	        -21.87473825	        -23.16454422	        -23.64128793	         -7.29722991	        -10.65456527	          0.14028113	          0.05000115	          0.23521524	          0.05000006	          0.05000014	          0.16013216	          0.22355677	          0.37159785	          0.05000017	          0.11612980	          0.14993997	          0.06590315	          0.20140768	          0.05000014	          0.05000003	          0.12897746	          0.15668214	          0.14427198	
          0.10659882	          2.08564066	          0.07186161	          0.47006699	        -15.34387166	         12.19668492	        -23.92216158	        -23.12768277	        -23.48872260	         -7.16347459	        -10.57174975	          0.14132167	          0.05000131	          0.23511919	          0.05000007	          0.05000015	          0.16407409	          0.22325520	          0.37646096	          0.05000026	          0.13463473	          0.17242484	          0.05740432	          0.20477222	          0.05000014	          0.05000003	          0.12521130	          0.13647631	          0.14945704	
          0.11548206	          2.08501922	          0.07717818	          0.47038322	        -14.63222256	         11.47804952	        -25.89016617	        -23.03138431	        -23.12954985	         -7.10421210	        -10.50910618	          0.14024559	          0.05000111	          0.23081481	          0.05000007	          0.05000017	          0.16541133	          0.22211443	          0.37633795	          0.05000056	          0.14658284	          0.18273243	          0.05000142	          0.20693675	          0.05000015	          0.05000003	          0.11714320	          0.11887623	          0.15546572	
